ply
format ascii 1.0
comment Created by Blender 2.79 (sub 0) - www.blender.org, source file: ''
element vertex 57
property float x
property float y
property float z
property float nx
property float ny
property float nz
element face 19
property list uchar uint vertex_indices
end_header
0.000000 0.000000 10.000000 0.356822 -0.491123 0.794654
-0.000000 -8.944272 4.472136 0.356822 -0.491123 0.794654
8.506508 -2.763932 4.472136 0.356822 -0.491123 0.794654
0.000000 0.000000 10.000000 0.577350 0.187593 0.794654
8.506508 -2.763932 4.472136 0.577350 0.187593 0.794654
5.257311 7.236068 4.472136 0.577350 0.187593 0.794654
0.000000 0.000000 10.000000 -0.000000 0.607062 0.794654
5.257311 7.236068 4.472136 -0.000000 0.607062 0.794654
-5.257311 7.236068 4.472136 -0.000000 0.607062 0.794654
0.000000 0.000000 10.000000 -0.577350 0.187593 0.794654
-5.257311 7.236068 4.472136 -0.577350 0.187593 0.794654
-8.506508 -2.763932 4.472136 -0.577350 0.187593 0.794654
0.000000 0.000000 10.000000 -0.356822 -0.491123 0.794654
-8.506508 -2.763932 4.472136 -0.356822 -0.491123 0.794654
-0.000000 -8.944272 4.472136 -0.356822 -0.491123 0.794654
-0.000000 -8.944272 4.472136 0.577350 -0.794654 0.187593
5.257311 -7.236068 -4.472136 0.577350 -0.794654 0.187593
8.506508 -2.763932 4.472136 0.577350 -0.794654 0.187593
8.506508 -2.763932 4.472136 0.934172 -0.303531 -0.187592
5.257311 -7.236068 -4.472136 0.934172 -0.303531 -0.187592
8.506508 2.763932 -4.472136 0.934172 -0.303531 -0.187592
8.506508 -2.763932 4.472136 0.934172 0.303531 0.187592
8.506508 2.763932 -4.472136 0.934172 0.303531 0.187592
5.257311 7.236068 4.472136 0.934172 0.303531 0.187592
5.257311 7.236068 4.472136 0.577350 0.794654 -0.187593
8.506508 2.763932 -4.472136 0.577350 0.794654 -0.187593
0.000000 8.944272 -4.472136 0.577350 0.794654 -0.187593
5.257311 7.236068 4.472136 0.000000 0.982247 0.187592
0.000000 8.944272 -4.472136 0.000000 0.982247 0.187592
-5.257311 7.236068 4.472136 0.000000 0.982247 0.187592
-5.257311 7.236068 4.472136 -0.577350 0.794654 -0.187593
0.000000 8.944272 -4.472136 -0.577350 0.794654 -0.187593
-8.506508 2.763932 -4.472136 -0.577350 0.794654 -0.187593
-5.257311 7.236068 4.472136 -0.934172 0.303531 0.187592
-8.506508 2.763932 -4.472136 -0.934172 0.303531 0.187592
-8.506508 -2.763932 4.472136 -0.934172 0.303531 0.187592
-8.506508 -2.763932 4.472136 -0.934172 -0.303531 -0.187592
-8.506508 2.763932 -4.472136 -0.934172 -0.303531 -0.187592
-5.257311 -7.236068 -4.472136 -0.934172 -0.303531 -0.187592
-8.506508 -2.763932 4.472136 -0.577350 -0.794654 0.187593
-5.257311 -7.236068 -4.472136 -0.577350 -0.794654 0.187593
-0.000000 -8.944272 4.472136 -0.577350 -0.794654 0.187593
-0.000000 -8.944272 4.472136 -0.000000 -0.982247 -0.187592
-5.257311 -7.236068 -4.472136 -0.000000 -0.982247 -0.187592
5.257311 -7.236068 -4.472136 -0.000000 -0.982247 -0.187592
5.257311 -7.236068 -4.472136 0.577350 -0.187593 -0.794654
-0.000000 0.000000 -10.000000 0.577350 -0.187593 -0.794654
8.506508 2.763932 -4.472136 0.577350 -0.187593 -0.794654
8.506508 2.763932 -4.472136 0.356822 0.491123 -0.794654
-0.000000 0.000000 -10.000000 0.356822 0.491123 -0.794654
0.000000 8.944272 -4.472136 0.356822 0.491123 -0.794654
0.000000 8.944272 -4.472136 -0.356822 0.491123 -0.794654
-0.000000 0.000000 -10.000000 -0.356822 0.491123 -0.794654
-8.506508 2.763932 -4.472136 -0.356822 0.491123 -0.794654
-5.257311 -7.236068 -4.472136 0.000000 -0.607062 -0.794654
-0.000000 0.000000 -10.000000 0.000000 -0.607062 -0.794654
5.257311 -7.236068 -4.472136 0.000000 -0.607062 -0.794654
3 0 1 2
3 3 4 5
3 6 7 8
3 9 10 11
3 12 13 14
3 15 16 17
3 18 19 20
3 21 22 23
3 24 25 26
3 27 28 29
3 30 31 32
3 33 34 35
3 36 37 38
3 39 40 41
3 42 43 44
3 45 46 47
3 48 49 50
3 51 52 53
3 54 55 56
