solid Default
  facet normal -4.276822e-01 -7.855492e-01 -4.472142e-01
    outer loop
      vertex -3.593896e+01 -1.444825e+01 4.172555e-05
      vertex -2.539972e+01 -2.018626e+01 4.172555e-05
      vertex -2.458346e+01 -2.644202e+01 1.020788e+01
    endloop
  endfacet
  facet normal 1.100677e-01 -8.435001e-01 -5.257305e-01
    outer loop
      vertex -2.458346e+01 -2.644202e+01 1.020788e+01
      vertex -2.539972e+01 -2.018626e+01 4.172555e-05
      vertex -1.350056e+01 -1.863355e+01 1.016390e-04
    endloop
  endfacet
  facet normal 2.182074e-06 -1.083116e-06 -1.000000e+00
    outer loop
      vertex -1.350056e+01 -1.863355e+01 1.016390e-04
      vertex -2.539972e+01 -2.018626e+01 4.172555e-05
      vertex -1.827928e+01 1.798816e+01 4.172555e-05
    endloop
  endfacet
  facet normal 2.427970e-06 -5.969856e-07 -1.000000e+00
    outer loop
      vertex -1.827928e+01 1.798816e+01 4.172555e-05
      vertex -2.539972e+01 -2.018626e+01 4.172555e-05
      vertex -3.593896e+01 -1.444825e+01 4.172555e-05
    endloop
  endfacet
  facet normal -4.276822e-01 -7.855492e-01 -4.472142e-01
    outer loop
      vertex -4.163634e+01 -1.715771e+01 1.020782e+01
      vertex -3.593896e+01 -1.444825e+01 4.172555e-05
      vertex -2.458346e+01 -2.644202e+01 1.020788e+01
    endloop
  endfacet
  facet normal 2.427970e-06 -5.969856e-07 -1.000000e+00
    outer loop
      vertex -1.827928e+01 1.798816e+01 4.172555e-05
      vertex -3.593896e+01 -1.444825e+01 4.172555e-05
      vertex -4.109266e+01 -3.611349e+00 0.000000e+00
    endloop
  endfacet
  facet normal -7.682024e-01 -3.653356e-01 -5.257329e-01
    outer loop
      vertex -4.109266e+01 -3.611349e+00 0.000000e+00
      vertex -3.593896e+01 -1.444825e+01 4.172555e-05
      vertex -4.678999e+01 -6.320826e+00 1.020777e+01
    endloop
  endfacet
  facet normal -7.682023e-01 -3.653348e-01 -5.257335e-01
    outer loop
      vertex -4.678999e+01 -6.320826e+00 1.020777e+01
      vertex -3.593896e+01 -1.444825e+01 4.172555e-05
      vertex -4.163634e+01 -1.715771e+01 1.020782e+01
    endloop
  endfacet
  facet normal -4.276822e-01 -7.855496e-01 -4.472135e-01
    outer loop
      vertex -4.163634e+01 -1.715771e+01 1.020782e+01
      vertex -2.458346e+01 -2.644202e+01 1.020788e+01
      vertex -3.461819e+01 -2.457022e+01 1.651663e+01
    endloop
  endfacet
  facet normal -2.334374e-01 -9.687460e-01 -8.389361e-02
    outer loop
      vertex -3.461819e+01 -2.457022e+01 1.651663e+01
      vertex -2.458346e+01 -2.644202e+01 1.020788e+01
      vertex -2.444404e+01 -2.751056e+01 2.215936e+01
    endloop
  endfacet
  facet normal 1.288677e-01 -9.875872e-01 -8.980401e-02
    outer loop
      vertex -2.444404e+01 -2.751056e+01 2.215936e+01
      vertex -2.458346e+01 -2.644202e+01 1.020788e+01
      vertex -1.254494e+01 -2.595785e+01 2.215938e+01
    endloop
  endfacet
  facet normal 1.288688e-01 -9.875869e-01 -8.980475e-02
    outer loop
      vertex -1.254494e+01 -2.595785e+01 2.215938e+01
      vertex -2.458346e+01 -2.644202e+01 1.020788e+01
      vertex -1.268433e+01 -2.488930e+01 1.020794e+01
    endloop
  endfacet
  facet normal 1.100677e-01 -8.435001e-01 -5.257305e-01
    outer loop
      vertex -2.458346e+01 -2.644202e+01 1.020788e+01
      vertex -1.350056e+01 -1.863355e+01 1.016390e-04
      vertex -1.268433e+01 -2.488930e+01 1.020794e+01
    endloop
  endfacet
  facet normal 2.427970e-06 -5.969856e-07 -1.000000e+00
    outer loop
      vertex -4.786621e+00 -1.038329e+01 7.921293e-05
      vertex -1.350056e+01 -1.863355e+01 1.016390e-04
      vertex -1.827928e+01 1.798816e+01 4.172555e-05
    endloop
  endfacet
  facet normal 6.149403e-01 -6.494993e-01 -4.472126e-01
    outer loop
      vertex -1.268433e+01 -2.488930e+01 1.020794e+01
      vertex -1.350056e+01 -1.863355e+01 1.016390e-04
      vertex -4.786621e+00 -1.038329e+01 7.921293e-05
    endloop
  endfacet
  facet normal 4.067531e-01 7.471007e-01 -5.257304e-01
    outer loop
      vertex -1.526267e+01 2.352898e+01 1.020784e+01
      vertex -7.740049e+00 1.225021e+01 6.885328e-05
      vertex -1.827928e+01 1.798816e+01 4.172555e-05
    endloop
  endfacet
  facet normal -1.157290e-01 8.869082e-01 -4.472143e-01
    outer loop
      vertex -1.526267e+01 2.352898e+01 1.020784e+01
      vertex -1.827928e+01 1.798816e+01 4.172555e-05
      vertex -2.529744e+01 2.540068e+01 1.651661e+01
    endloop
  endfacet
  facet normal -1.157301e-01 8.869080e-01 -4.472145e-01
    outer loop
      vertex -1.827928e+01 1.798816e+01 4.172555e-05
      vertex -3.017842e+01 1.643546e+01 2.427128e-05
      vertex -2.529744e+01 2.540068e+01 1.651661e+01
    endloop
  endfacet
  facet normal 2.427970e-06 -5.969856e-07 -1.000000e+00
    outer loop
      vertex -1.827928e+01 1.798816e+01 4.172555e-05
      vertex -4.109266e+01 -3.611349e+00 0.000000e+00
      vertex -3.017842e+01 1.643546e+01 2.427128e-05
    endloop
  endfacet
  facet normal 2.427970e-06 -5.969856e-07 -1.000000e+00
    outer loop
      vertex -2.586305e+00 1.413295e+00 1.048953e-04
      vertex -4.786621e+00 -1.038329e+01 7.921293e-05
      vertex -1.827928e+01 1.798816e+01 4.172555e-05
    endloop
  endfacet
  facet normal 3.759199e-06 4.693507e-07 -1.000000e+00
    outer loop
      vertex -7.740049e+00 1.225021e+01 6.885328e-05
      vertex -2.586305e+00 1.413295e+00 1.048953e-04
      vertex -1.827928e+01 1.798816e+01 4.172555e-05
    endloop
  endfacet
  facet normal -8.870452e-01 -4.218522e-01 -1.875941e-01
    outer loop
      vertex -4.678999e+01 -6.320826e+00 1.020777e+01
      vertex -4.163634e+01 -1.715771e+01 1.020782e+01
      vertex -4.597377e+01 -1.257659e+01 2.041562e+01
    endloop
  endfacet
  facet normal -7.261625e-01 -6.875231e-01 -1.168200e-06
    outer loop
      vertex -4.597377e+01 -1.257659e+01 2.041562e+01
      vertex -4.163634e+01 -1.715771e+01 1.020782e+01
      vertex -3.895569e+01 -1.998902e+01 2.672438e+01
    endloop
  endfacet
  facet normal -7.261621e-01 -6.875235e-01 -1.474983e-06
    outer loop
      vertex -3.895569e+01 -1.998902e+01 2.672438e+01
      vertex -4.163634e+01 -1.715771e+01 1.020782e+01
      vertex -3.461819e+01 -2.457022e+01 1.651663e+01
    endloop
  endfacet
  facet normal -8.792616e-01 1.640036e-01 -4.472158e-01
    outer loop
      vertex -3.889235e+01 8.185212e+00 4.120522e-05
      vertex -4.109266e+01 -3.611349e+00 0.000000e+00
      vertex -4.811084e+01 3.801204e+00 1.651656e+01
    endloop
  endfacet
  facet normal -8.792616e-01 1.640036e-01 -4.472158e-01
    outer loop
      vertex -4.811084e+01 3.801204e+00 1.651656e+01
      vertex -4.109266e+01 -3.611349e+00 0.000000e+00
      vertex -4.678999e+01 -6.320826e+00 1.020777e+01
    endloop
  endfacet
  facet normal 3.139468e-06 -1.321525e-06 -1.000000e+00
    outer loop
      vertex -3.017842e+01 1.643546e+01 2.427128e-05
      vertex -4.109266e+01 -3.611349e+00 0.000000e+00
      vertex -3.889235e+01 8.185212e+00 4.120522e-05
    endloop
  endfacet
  facet normal -9.915938e-01 -1.293893e-01 -2.777258e-06
    outer loop
      vertex -4.811084e+01 3.801204e+00 1.651656e+01
      vertex -4.678999e+01 -6.320826e+00 1.020777e+01
      vertex -4.729462e+01 -2.454531e+00 2.672437e+01
    endloop
  endfacet
  facet normal -9.915937e-01 -1.293906e-01 -3.059436e-06
    outer loop
      vertex -4.729462e+01 -2.454531e+00 2.672437e+01
      vertex -4.678999e+01 -6.320826e+00 1.020777e+01
      vertex -4.597377e+01 -1.257659e+01 2.041562e+01
    endloop
  endfacet
  facet normal -3.879503e-01 -8.911881e-01 2.351135e-01
    outer loop
      vertex -3.895569e+01 -1.998902e+01 2.672438e+01
      vertex -3.461819e+01 -2.457022e+01 1.651663e+01
      vertex -2.878150e+01 -2.292943e+01 3.236719e+01
    endloop
  endfacet
  facet normal -3.879494e-01 -8.911884e-01 2.351134e-01
    outer loop
      vertex -2.878150e+01 -2.292943e+01 3.236719e+01
      vertex -3.461819e+01 -2.457022e+01 1.651663e+01
      vertex -2.444404e+01 -2.751056e+01 2.215936e+01
    endloop
  endfacet
  facet normal 1.157299e-01 -8.869084e-01 4.472139e-01
    outer loop
      vertex -2.878150e+01 -2.292943e+01 3.236719e+01
      vertex -2.444404e+01 -2.751056e+01 2.215936e+01
      vertex -9.528323e+00 -2.041711e+01 3.236724e+01
    endloop
  endfacet
  facet normal 1.157291e-01 -8.869081e-01 4.472145e-01
    outer loop
      vertex -9.528323e+00 -2.041711e+01 3.236724e+01
      vertex -2.444404e+01 -2.751056e+01 2.215936e+01
      vertex -1.254494e+01 -2.595785e+01 2.215938e+01
    endloop
  endfacet
  facet normal 6.036431e-01 -7.617973e-01 2.351166e-01
    outer loop
      vertex -9.528323e+00 -2.041711e+01 3.236724e+01
      vertex -1.254494e+01 -2.595785e+01 2.215938e+01
      vertex -4.492545e-01 -1.496449e+01 2.672451e+01
    endloop
  endfacet
  facet normal 6.036434e-01 -7.617974e-01 2.351157e-01
    outer loop
      vertex -4.492545e-01 -1.496449e+01 2.672451e+01
      vertex -1.254494e+01 -2.595785e+01 2.215938e+01
      vertex -3.465872e+00 -2.050524e+01 1.651665e+01
    endloop
  endfacet
  facet normal 4.742077e-01 -8.764070e-01 -8.389216e-02
    outer loop
      vertex -1.254494e+01 -2.595785e+01 2.215938e+01
      vertex -1.268433e+01 -2.488930e+01 1.020794e+01
      vertex -3.465872e+00 -2.050524e+01 1.651665e+01
    endloop
  endfacet
  facet normal 6.149406e-01 -6.494998e-01 -4.472114e-01
    outer loop
      vertex -3.465872e+00 -2.050524e+01 1.651665e+01
      vertex -1.268433e+01 -2.488930e+01 1.020794e+01
      vertex -4.786621e+00 -1.038329e+01 7.921293e-05
    endloop
  endfacet
  facet normal 8.362297e-01 -1.559771e-01 -5.257291e-01
    outer loop
      vertex 1.415098e+00 -1.154006e+01 1.020792e+01
      vertex -4.786621e+00 -1.038329e+01 7.921293e-05
      vertex -2.586305e+00 1.413295e+00 1.048953e-04
    endloop
  endfacet
  facet normal 6.149395e-01 -6.495003e-01 -4.472122e-01
    outer loop
      vertex -3.465872e+00 -2.050524e+01 1.651665e+01
      vertex -4.786621e+00 -1.038329e+01 7.921293e-05
      vertex 1.415098e+00 -1.154006e+01 1.020792e+01
    endloop
  endfacet
  facet normal 4.696769e-01 8.626778e-01 -1.875918e-01
    outer loop
      vertex -9.060886e+00 2.237225e+01 2.041566e+01
      vertex -4.723421e+00 1.779103e+01 1.020787e+01
      vertex -1.526267e+01 2.352898e+01 1.020784e+01
    endloop
  endfacet
  facet normal 1.833610e-01 9.830456e-01 -1.787169e-07
    outer loop
      vertex -9.060886e+00 2.237225e+01 2.041566e+01
      vertex -1.526267e+01 2.352898e+01 1.020784e+01
      vertex -1.909565e+01 2.424392e+01 2.672439e+01
    endloop
  endfacet
  facet normal 1.833617e-01 9.830456e-01 -2.858282e-07
    outer loop
      vertex -1.909565e+01 2.424392e+01 2.672439e+01
      vertex -1.526267e+01 2.352898e+01 1.020784e+01
      vertex -2.529744e+01 2.540068e+01 1.651661e+01
    endloop
  endfacet
  facet normal 4.067531e-01 7.471007e-01 -5.257304e-01
    outer loop
      vertex -4.723421e+00 1.779103e+01 1.020787e+01
      vertex -7.740049e+00 1.225021e+01 6.885328e-05
      vertex -1.526267e+01 2.352898e+01 1.020784e+01
    endloop
  endfacet
  facet normal 8.077382e-01 3.841361e-01 -4.472120e-01
    outer loop
      vertex -4.723421e+00 1.779103e+01 1.020787e+01
      vertex -2.586305e+00 1.413295e+00 1.048953e-04
      vertex -7.740049e+00 1.225021e+01 6.885328e-05
    endloop
  endfacet
  facet normal -2.099699e-01 9.490175e-01 2.351135e-01
    outer loop
      vertex -1.909565e+01 2.424392e+01 2.672439e+01
      vertex -2.529744e+01 2.540068e+01 1.651661e+01
      vertex -3.525681e+01 2.179930e+01 2.215928e+01
    endloop
  endfacet
  facet normal -3.805594e-01 9.209431e-01 -8.389504e-02
    outer loop
      vertex -2.529744e+01 2.540068e+01 1.651661e+01
      vertex -3.451583e+01 2.101667e+01 1.020780e+01
      vertex -3.525681e+01 2.179930e+01 2.215928e+01
    endloop
  endfacet
  facet normal -1.157292e-01 8.869080e-01 -4.472147e-01
    outer loop
      vertex -2.529744e+01 2.540068e+01 1.651661e+01
      vertex -3.017842e+01 1.643546e+01 2.427128e-05
      vertex -3.451583e+01 2.101667e+01 1.020780e+01
    endloop
  endfacet
  facet normal -5.848413e-01 6.177098e-01 -5.257331e-01
    outer loop
      vertex -3.017842e+01 1.643546e+01 2.427128e-05
      vertex -3.889235e+01 8.185212e+00 4.120522e-05
      vertex -3.451583e+01 2.101667e+01 1.020780e+01
    endloop
  endfacet
  facet normal 8.077382e-01 3.841361e-01 -4.472120e-01
    outer loop
      vertex 3.615496e+00 2.564812e-01 1.020790e+01
      vertex -2.586305e+00 1.413295e+00 1.048953e-04
      vertex -4.723421e+00 1.779103e+01 1.020787e+01
    endloop
  endfacet
  facet normal 8.362297e-01 -1.559771e-01 -5.257291e-01
    outer loop
      vertex 1.415098e+00 -1.154006e+01 1.020792e+01
      vertex -2.586305e+00 1.413295e+00 1.048953e-04
      vertex 3.615496e+00 2.564812e-01 1.020790e+01
    endloop
  endfacet
  facet normal -8.077382e-01 -3.841361e-01 4.472119e-01
    outer loop
      vertex -4.729462e+01 -2.454531e+00 2.672437e+01
      vertex -4.597377e+01 -1.257659e+01 2.041562e+01
      vertex -3.593907e+01 -1.444827e+01 3.693225e+01
    endloop
  endfacet
  facet normal -8.077381e-01 -3.841360e-01 4.472120e-01
    outer loop
      vertex -3.593907e+01 -1.444827e+01 3.693225e+01
      vertex -4.597377e+01 -1.257659e+01 2.041562e+01
      vertex -3.895569e+01 -1.998902e+01 2.672438e+01
    endloop
  endfacet
  facet normal -4.913872e-01 -6.963007e-01 5.231673e-01
    outer loop
      vertex -3.593907e+01 -1.444827e+01 3.693225e+01
      vertex -3.895569e+01 -1.998902e+01 2.672438e+01
      vertex -2.878150e+01 -2.292943e+01 3.236719e+01
    endloop
  endfacet
  facet normal -5.848407e-01 6.177102e-01 -5.257333e-01
    outer loop
      vertex -3.451583e+01 2.101667e+01 1.020780e+01
      vertex -3.889235e+01 8.185212e+00 4.120522e-05
      vertex -4.322977e+01 1.276640e+01 1.020778e+01
    endloop
  endfacet
  facet normal -8.792613e-01 1.640030e-01 -4.472164e-01
    outer loop
      vertex -4.322977e+01 1.276640e+01 1.020778e+01
      vertex -3.889235e+01 8.185212e+00 4.120522e-05
      vertex -4.811084e+01 3.801204e+00 1.651656e+01
    endloop
  endfacet
  facet normal -8.987808e-01 4.302958e-01 -8.389652e-02
    outer loop
      vertex -4.322977e+01 1.276640e+01 1.020778e+01
      vertex -4.811084e+01 3.801204e+00 1.651656e+01
      vertex -4.397076e+01 1.354899e+01 2.215929e+01
    endloop
  endfacet
  facet normal -9.361321e-01 2.614945e-01 2.351114e-01
    outer loop
      vertex -4.397076e+01 1.354899e+01 2.215929e+01
      vertex -4.811084e+01 3.801204e+00 1.651656e+01
      vertex -4.315453e+01 7.293262e+00 3.236711e+01
    endloop
  endfacet
  facet normal -9.361321e-01 2.614943e-01 2.351113e-01
    outer loop
      vertex -4.315453e+01 7.293262e+00 3.236711e+01
      vertex -4.811084e+01 3.801204e+00 1.651656e+01
      vertex -4.729462e+01 -2.454531e+00 2.672437e+01
    endloop
  endfacet
  facet normal -8.502367e-01 5.826597e-02 5.231660e-01
    outer loop
      vertex -4.315453e+01 7.293262e+00 3.236711e+01
      vertex -4.729462e+01 -2.454531e+00 2.672437e+01
      vertex -4.109279e+01 -3.611265e+00 3.693218e+01
    endloop
  endfacet
  facet normal -8.077382e-01 -3.841349e-01 4.472128e-01
    outer loop
      vertex -4.109279e+01 -3.611265e+00 3.693218e+01
      vertex -4.729462e+01 -2.454531e+00 2.672437e+01
      vertex -3.593907e+01 -1.444827e+01 3.693225e+01
    endloop
  endfacet
  facet normal -2.325862e-01 -6.058208e-01 7.608449e-01
    outer loop
      vertex -3.593907e+01 -1.444827e+01 3.693225e+01
      vertex -2.878150e+01 -2.292943e+01 3.236719e+01
      vertex -2.672061e+01 -1.006418e+01 4.324100e+01
    endloop
  endfacet
  facet normal -2.325862e-01 -6.058208e-01 7.608449e-01
    outer loop
      vertex -2.672061e+01 -1.006418e+01 4.324100e+01
      vertex -2.878150e+01 -2.292943e+01 3.236719e+01
      vertex -1.956306e+01 -1.854534e+01 3.867594e+01
    endloop
  endfacet
  facet normal 1.157290e-01 -8.869081e-01 4.472144e-01
    outer loop
      vertex -1.956306e+01 -1.854534e+01 3.867594e+01
      vertex -2.878150e+01 -2.292943e+01 3.236719e+01
      vertex -9.528323e+00 -2.041711e+01 3.236724e+01
    endloop
  endfacet
  facet normal 3.802522e-01 -5.258518e-01 7.608470e-01
    outer loop
      vertex -1.956306e+01 -1.854534e+01 3.867594e+01
      vertex -9.528323e+00 -2.041711e+01 3.236724e+01
      vertex -4.786757e+00 -1.038326e+01 3.693231e+01
    endloop
  endfacet
  facet normal 6.536060e-01 -5.468926e-01 5.231709e-01
    outer loop
      vertex -4.786757e+00 -1.038326e+01 3.693231e+01
      vertex -9.528323e+00 -2.041711e+01 3.236724e+01
      vertex -4.492545e-01 -1.496449e+01 2.672451e+01
    endloop
  endfacet
  facet normal 8.792613e-01 -1.640030e-01 4.472164e-01
    outer loop
      vertex -4.786757e+00 -1.038326e+01 3.693231e+01
      vertex -4.492545e-01 -1.496449e+01 2.672451e+01
      vertex 3.110954e+00 4.122736e+00 2.672446e+01
    endloop
  endfacet
  facet normal 8.792616e-01 -1.640036e-01 4.472158e-01
    outer loop
      vertex 3.110954e+00 4.122736e+00 2.672446e+01
      vertex -4.492545e-01 -1.496449e+01 2.672451e+01
      vertex 4.431727e+00 -5.999240e+00 2.041572e+01
    endloop
  endfacet
  facet normal 8.782697e-01 -4.781655e-01 2.564885e-06
    outer loop
      vertex -4.492545e-01 -1.496449e+01 2.672451e+01
      vertex -3.465872e+00 -2.050524e+01 1.651665e+01
      vertex 4.431727e+00 -5.999240e+00 2.041572e+01
    endloop
  endfacet
  facet normal 8.782699e-01 -4.781654e-01 2.811026e-06
    outer loop
      vertex 4.431727e+00 -5.999240e+00 2.041572e+01
      vertex -3.465872e+00 -2.050524e+01 1.651665e+01
      vertex 1.415098e+00 -1.154006e+01 1.020792e+01
    endloop
  endfacet
  facet normal 9.655940e-01 -1.801061e-01 -1.875906e-01
    outer loop
      vertex 4.431727e+00 -5.999240e+00 2.041572e+01
      vertex 1.415098e+00 -1.154006e+01 1.020792e+01
      vertex 3.615496e+00 2.564812e-01 1.020790e+01
    endloop
  endfacet
  facet normal 4.276822e-01 7.855484e-01 4.472154e-01
    outer loop
      vertex -2.042759e+00 1.495973e+01 2.672448e+01
      vertex -9.060886e+00 2.237225e+01 2.041566e+01
      vertex -1.909565e+01 2.424392e+01 2.672439e+01
    endloop
  endfacet
  facet normal 7.261622e-01 6.875235e-01 6.433056e-07
    outer loop
      vertex 2.294639e+00 1.037851e+01 1.651667e+01
      vertex -4.723421e+00 1.779103e+01 1.020787e+01
      vertex -9.060886e+00 2.237225e+01 2.041566e+01
    endloop
  endfacet
  facet normal 7.261624e-01 6.875232e-01 1.999878e-06
    outer loop
      vertex -2.042759e+00 1.495973e+01 2.672448e+01
      vertex 2.294639e+00 1.037851e+01 1.651667e+01
      vertex -9.060886e+00 2.237225e+01 2.041566e+01
    endloop
  endfacet
  facet normal 8.077382e-01 3.841361e-01 -4.472119e-01
    outer loop
      vertex 2.294639e+00 1.037851e+01 1.651667e+01
      vertex 3.615496e+00 2.564812e-01 1.020790e+01
      vertex -4.723421e+00 1.779103e+01 1.020787e+01
    endloop
  endfacet
  facet normal 4.276822e-01 7.855496e-01 4.472135e-01
    outer loop
      vertex -7.740125e+00 1.225024e+01 3.693228e+01
      vertex -1.909565e+01 2.424392e+01 2.672439e+01
      vertex -1.827938e+01 1.798818e+01 3.693220e+01
    endloop
  endfacet
  facet normal -1.173661e-02 8.521494e-01 5.231670e-01
    outer loop
      vertex -1.827938e+01 1.798818e+01 3.693220e+01
      vertex -1.909565e+01 2.424392e+01 2.672439e+01
      vertex -2.905501e+01 2.064245e+01 3.236712e+01
    endloop
  endfacet
  facet normal -2.099696e-01 9.490178e-01 2.351127e-01
    outer loop
      vertex -1.909565e+01 2.424392e+01 2.672439e+01
      vertex -3.525681e+01 2.179930e+01 2.215928e+01
      vertex -2.905501e+01 2.064245e+01 3.236712e+01
    endloop
  endfacet
  facet normal 4.276830e-01 7.855492e-01 4.472132e-01
    outer loop
      vertex -7.740125e+00 1.225024e+01 3.693228e+01
      vertex -2.042759e+00 1.495973e+01 2.672448e+01
      vertex -1.909565e+01 2.424392e+01 2.672439e+01
    endloop
  endfacet
  facet normal -6.149406e-01 6.494998e-01 4.472114e-01
    outer loop
      vertex -3.525681e+01 2.179930e+01 2.215928e+01
      vertex -4.397076e+01 1.354899e+01 2.215929e+01
      vertex -2.905501e+01 2.064245e+01 3.236712e+01
    endloop
  endfacet
  facet normal -6.847450e-01 7.232282e-01 -8.980778e-02
    outer loop
      vertex -3.525681e+01 2.179930e+01 2.215928e+01
      vertex -4.322977e+01 1.276640e+01 1.020778e+01
      vertex -4.397076e+01 1.354899e+01 2.215929e+01
    endloop
  endfacet
  facet normal -6.847450e-01 7.232282e-01 -8.980778e-02
    outer loop
      vertex -3.451583e+01 2.101667e+01 1.020780e+01
      vertex -4.322977e+01 1.276640e+01 1.020778e+01
      vertex -3.525681e+01 2.179930e+01 2.215928e+01
    endloop
  endfacet
  facet normal 9.915937e-01 1.293909e-01 1.670059e-06
    outer loop
      vertex 4.431727e+00 -5.999240e+00 2.041572e+01
      vertex 3.615496e+00 2.564812e-01 1.020790e+01
      vertex 2.294639e+00 1.037851e+01 1.651667e+01
    endloop
  endfacet
  facet normal -4.747781e-01 -2.257889e-01 8.506498e-01
    outer loop
      vertex -4.109279e+01 -3.611265e+00 3.693218e+01
      vertex -3.593907e+01 -1.444827e+01 3.693225e+01
      vertex -2.672061e+01 -1.006418e+01 4.324100e+01
    endloop
  endfacet
  facet normal -6.149406e-01 6.494998e-01 4.472114e-01
    outer loop
      vertex -2.905501e+01 2.064245e+01 3.236712e+01
      vertex -4.397076e+01 1.354899e+01 2.215929e+01
      vertex -4.315453e+01 7.293262e+00 3.236711e+01
    endloop
  endfacet
  facet normal -6.149406e-01 6.494998e-01 4.472114e-01
    outer loop
      vertex -2.905501e+01 2.064245e+01 3.236712e+01
      vertex -4.315453e+01 7.293262e+00 3.236711e+01
      vertex -3.393608e+01 1.167726e+01 3.867587e+01
    endloop
  endfacet
  facet normal -6.167221e-01 2.019174e-01 7.608438e-01
    outer loop
      vertex -4.315453e+01 7.293262e+00 3.236711e+01
      vertex -4.109279e+01 -3.611265e+00 3.693218e+01
      vertex -3.393608e+01 1.167726e+01 3.867587e+01
    endloop
  endfacet
  facet normal -6.167228e-01 2.019170e-01 7.608433e-01
    outer loop
      vertex -3.393608e+01 1.167726e+01 3.867587e+01
      vertex -4.109279e+01 -3.611265e+00 3.693218e+01
      vertex -3.187434e+01 7.727221e-01 4.324096e+01
    endloop
  endfacet
  facet normal -4.747781e-01 -2.257889e-01 8.506498e-01
    outer loop
      vertex -3.187434e+01 7.727221e-01 4.324096e+01
      vertex -4.109279e+01 -3.611265e+00 3.693218e+01
      vertex -2.672061e+01 -1.006418e+01 4.324100e+01
    endloop
  endfacet
  facet normal -2.182074e-06 1.083116e-06 1.000000e+00
    outer loop
      vertex -3.187434e+01 7.727221e-01 4.324096e+01
      vertex -2.672061e+01 -1.006418e+01 4.324100e+01
      vertex -1.262117e+01 3.285020e+00 4.324103e+01
    endloop
  endfacet
  facet normal -1.470575e-06 3.585760e-07 1.000000e+00
    outer loop
      vertex -1.262117e+01 3.285020e+00 4.324103e+01
      vertex -2.672061e+01 -1.006418e+01 4.324100e+01
      vertex -1.482150e+01 -8.511512e+00 4.324098e+01
    endloop
  endfacet
  facet normal 5.683654e-02 -4.355803e-01 8.983538e-01
    outer loop
      vertex -2.672061e+01 -1.006418e+01 4.324100e+01
      vertex -1.956306e+01 -1.854534e+01 3.867594e+01
      vertex -1.482150e+01 -8.511512e+00 4.324098e+01
    endloop
  endfacet
  facet normal 3.802522e-01 -5.258518e-01 7.608470e-01
    outer loop
      vertex -1.482150e+01 -8.511512e+00 4.324098e+01
      vertex -1.956306e+01 -1.854534e+01 3.867594e+01
      vertex -4.786757e+00 -1.038326e+01 3.693231e+01
    endloop
  endfacet
  facet normal 5.168159e-01 -9.639867e-02 8.506519e-01
    outer loop
      vertex -1.482150e+01 -8.511512e+00 4.324098e+01
      vertex -4.786757e+00 -1.038326e+01 3.693231e+01
      vertex -2.586468e+00 1.413275e+00 3.693225e+01
    endloop
  endfacet
  facet normal 8.792613e-01 -1.640030e-01 4.472164e-01
    outer loop
      vertex -2.586468e+00 1.413275e+00 3.693225e+01
      vertex -4.786757e+00 -1.038326e+01 3.693231e+01
      vertex 3.110954e+00 4.122736e+00 2.672446e+01
    endloop
  endfacet
  facet normal 7.682024e-01 3.653356e-01 5.257329e-01
    outer loop
      vertex -2.586468e+00 1.413275e+00 3.693225e+01
      vertex 3.110954e+00 4.122736e+00 2.672446e+01
      vertex -2.042759e+00 1.495973e+01 2.672448e+01
    endloop
  endfacet
  facet normal 8.870444e-01 4.218537e-01 1.875945e-01
    outer loop
      vertex 3.110954e+00 4.122736e+00 2.672446e+01
      vertex 2.294639e+00 1.037851e+01 1.651667e+01
      vertex -2.042759e+00 1.495973e+01 2.672448e+01
    endloop
  endfacet
  facet normal 9.915937e-01 1.293909e-01 1.670059e-06
    outer loop
      vertex 3.110954e+00 4.122736e+00 2.672446e+01
      vertex 4.431727e+00 -5.999240e+00 2.041572e+01
      vertex 2.294639e+00 1.037851e+01 1.651667e+01
    endloop
  endfacet
  facet normal 7.682033e-01 3.653350e-01 5.257320e-01
    outer loop
      vertex -2.586468e+00 1.413275e+00 3.693225e+01
      vertex -2.042759e+00 1.495973e+01 2.672448e+01
      vertex -7.740125e+00 1.225024e+01 3.693228e+01
    endloop
  endfacet
  facet normal 5.482227e-01 2.607188e-01 7.946556e-01
    outer loop
      vertex -1.262117e+01 3.285020e+00 4.324103e+01
      vertex -2.586468e+00 1.413275e+00 3.693225e+01
      vertex -7.740125e+00 1.225024e+01 3.693228e+01
    endloop
  endfacet
  facet normal 2.513837e-01 4.617343e-01 8.506513e-01
    outer loop
      vertex -2.316039e+01 9.023008e+00 4.324104e+01
      vertex -1.262117e+01 3.285020e+00 4.324103e+01
      vertex -7.740125e+00 1.225024e+01 3.693228e+01
    endloop
  endfacet
  facet normal 2.513837e-01 4.617343e-01 8.506513e-01
    outer loop
      vertex -1.827938e+01 1.798818e+01 3.693220e+01
      vertex -2.316039e+01 9.023008e+00 4.324104e+01
      vertex -7.740125e+00 1.225024e+01 3.693228e+01
    endloop
  endfacet
  facet normal -1.679301e-01 6.268294e-01 7.608445e-01
    outer loop
      vertex -1.827938e+01 1.798818e+01 3.693220e+01
      vertex -3.393608e+01 1.167726e+01 3.867587e+01
      vertex -2.316039e+01 9.023008e+00 4.324104e+01
    endloop
  endfacet
  facet normal -1.679301e-01 6.268295e-01 7.608444e-01
    outer loop
      vertex -2.905501e+01 2.064245e+01 3.236712e+01
      vertex -3.393608e+01 1.167726e+01 3.867587e+01
      vertex -1.827938e+01 1.798818e+01 3.693220e+01
    endloop
  endfacet
  facet normal -3.020135e-01 3.189852e-01 8.983521e-01
    outer loop
      vertex -3.393608e+01 1.167726e+01 3.867587e+01
      vertex -3.187434e+01 7.727221e-01 4.324096e+01
      vertex -2.316039e+01 9.023008e+00 4.324104e+01
    endloop
  endfacet
  facet normal -2.427970e-06 5.969856e-07 1.000000e+00
    outer loop
      vertex -2.316039e+01 9.023008e+00 4.324104e+01
      vertex -3.187434e+01 7.727221e-01 4.324096e+01
      vertex -1.262117e+01 3.285020e+00 4.324103e+01
    endloop
  endfacet
  facet normal 5.168159e-01 -9.639867e-02 8.506519e-01
    outer loop
      vertex -1.262117e+01 3.285020e+00 4.324103e+01
      vertex -1.482150e+01 -8.511512e+00 4.324098e+01
      vertex -2.586468e+00 1.413275e+00 3.693225e+01
    endloop
  endfacet
  facet normal -4.276822e-01 -7.855492e-01 -4.472142e-01
    outer loop
      vertex -3.476401e+01 -1.333581e+01 1.726563e+00
      vertex -2.510304e+01 -1.859565e+01 1.726572e+00
      vertex -2.435480e+01 -2.433007e+01 1.108373e+01
    endloop
  endfacet
  facet normal 1.100677e-01 -8.435001e-01 -5.257305e-01
    outer loop
      vertex -2.435480e+01 -2.433007e+01 1.108373e+01
      vertex -2.510304e+01 -1.859565e+01 1.726572e+00
      vertex -1.419551e+01 -1.717236e+01 1.726576e+00
    endloop
  endfacet
  facet normal 2.182074e-06 -1.083116e-06 -1.000000e+00
    outer loop
      vertex -1.419551e+01 -1.717236e+01 1.726576e+00
      vertex -2.510304e+01 -1.859565e+01 1.726572e+00
      vertex -1.857597e+01 1.639761e+01 1.726551e+00
    endloop
  endfacet
  facet normal 2.427970e-06 -5.969856e-07 -1.000000e+00
    outer loop
      vertex -1.857597e+01 1.639761e+01 1.726551e+00
      vertex -2.510304e+01 -1.859565e+01 1.726572e+00
      vertex -3.476401e+01 -1.333581e+01 1.726563e+00
    endloop
  endfacet
  facet normal -4.276822e-01 -7.855492e-01 -4.472142e-01
    outer loop
      vertex -3.998661e+01 -1.581951e+01 1.108369e+01
      vertex -3.476401e+01 -1.333581e+01 1.726563e+00
      vertex -2.435480e+01 -2.433007e+01 1.108373e+01
    endloop
  endfacet
  facet normal 2.427970e-06 -5.969856e-07 -1.000000e+00
    outer loop
      vertex -1.857597e+01 1.639761e+01 1.726551e+00
      vertex -3.476401e+01 -1.333581e+01 1.726563e+00
      vertex -3.948825e+01 -3.401987e+00 1.726529e+00
    endloop
  endfacet
  facet normal -7.682024e-01 -3.653356e-01 -5.257329e-01
    outer loop
      vertex -3.948825e+01 -3.401987e+00 1.726529e+00
      vertex -3.476401e+01 -1.333581e+01 1.726563e+00
      vertex -4.471087e+01 -5.885667e+00 1.108365e+01
    endloop
  endfacet
  facet normal -7.682023e-01 -3.653348e-01 -5.257335e-01
    outer loop
      vertex -4.471087e+01 -5.885667e+00 1.108365e+01
      vertex -3.476401e+01 -1.333581e+01 1.726563e+00
      vertex -3.998661e+01 -1.581951e+01 1.108369e+01
    endloop
  endfacet
  facet normal -4.276822e-01 -7.855496e-01 -4.472135e-01
    outer loop
      vertex -3.998661e+01 -1.581951e+01 1.108369e+01
      vertex -2.435480e+01 -2.433007e+01 1.108373e+01
      vertex -3.355330e+01 -2.261428e+01 1.686679e+01
    endloop
  endfacet
  facet normal -2.334374e-01 -9.687460e-01 -8.389361e-02
    outer loop
      vertex -3.355330e+01 -2.261428e+01 1.686679e+01
      vertex -2.435480e+01 -2.433007e+01 1.108373e+01
      vertex -2.422701e+01 -2.530966e+01 2.203928e+01
    endloop
  endfacet
  facet normal 1.288677e-01 -9.875872e-01 -8.980401e-02
    outer loop
      vertex -2.422701e+01 -2.530966e+01 2.203928e+01
      vertex -2.435480e+01 -2.433007e+01 1.108373e+01
      vertex -1.331943e+01 -2.388634e+01 2.203932e+01
    endloop
  endfacet
  facet normal 1.288688e-01 -9.875869e-01 -8.980475e-02
    outer loop
      vertex -1.331943e+01 -2.388634e+01 2.203932e+01
      vertex -2.435480e+01 -2.433007e+01 1.108373e+01
      vertex -1.344729e+01 -2.290678e+01 1.108374e+01
    endloop
  endfacet
  facet normal 1.100677e-01 -8.435001e-01 -5.257305e-01
    outer loop
      vertex -2.435480e+01 -2.433007e+01 1.108373e+01
      vertex -1.419551e+01 -1.717236e+01 1.726576e+00
      vertex -1.344729e+01 -2.290678e+01 1.108374e+01
    endloop
  endfacet
  facet normal 2.427970e-06 -5.969856e-07 -1.000000e+00
    outer loop
      vertex -6.207739e+00 -9.609578e+00 1.726636e+00
      vertex -1.419551e+01 -1.717236e+01 1.726576e+00
      vertex -1.857597e+01 1.639761e+01 1.726551e+00
    endloop
  endfacet
  facet normal 6.149403e-01 -6.494993e-01 -4.472126e-01
    outer loop
      vertex -1.344729e+01 -2.290678e+01 1.108374e+01
      vertex -1.419551e+01 -1.717236e+01 1.726576e+00
      vertex -6.207739e+00 -9.609578e+00 1.726636e+00
    endloop
  endfacet
  facet normal 4.067531e-01 7.471007e-01 -5.257304e-01
    outer loop
      vertex -1.581075e+01 2.147663e+01 1.108374e+01
      vertex -8.914975e+00 1.113777e+01 1.726586e+00
      vertex -1.857597e+01 1.639761e+01 1.726551e+00
    endloop
  endfacet
  facet normal -1.157290e-01 8.869082e-01 -4.472143e-01
    outer loop
      vertex -1.581075e+01 2.147663e+01 1.108374e+01
      vertex -1.857597e+01 1.639761e+01 1.726551e+00
      vertex -2.500927e+01 2.319238e+01 1.686675e+01
    endloop
  endfacet
  facet normal -1.157301e-01 8.869080e-01 -4.472145e-01
    outer loop
      vertex -1.857597e+01 1.639761e+01 1.726551e+00
      vertex -2.948350e+01 1.497430e+01 1.726522e+00
      vertex -2.500927e+01 2.319238e+01 1.686675e+01
    endloop
  endfacet
  facet normal 2.427970e-06 -5.969856e-07 -1.000000e+00
    outer loop
      vertex -1.857597e+01 1.639761e+01 1.726551e+00
      vertex -3.948825e+01 -3.401987e+00 1.726529e+00
      vertex -2.948350e+01 1.497430e+01 1.726522e+00
    endloop
  endfacet
  facet normal 2.427970e-06 -5.969856e-07 -1.000000e+00
    outer loop
      vertex -4.190720e+00 1.203905e+00 1.726604e+00
      vertex -6.207739e+00 -9.609578e+00 1.726636e+00
      vertex -1.857597e+01 1.639761e+01 1.726551e+00
    endloop
  endfacet
  facet normal 3.759199e-06 4.693507e-07 -1.000000e+00
    outer loop
      vertex -8.914975e+00 1.113777e+01 1.726586e+00
      vertex -4.190720e+00 1.203905e+00 1.726604e+00
      vertex -1.857597e+01 1.639761e+01 1.726551e+00
    endloop
  endfacet
  facet normal -8.870452e-01 -4.218522e-01 -1.875941e-01
    outer loop
      vertex -4.471087e+01 -5.885667e+00 1.108365e+01
      vertex -3.998661e+01 -1.581951e+01 1.108369e+01
      vertex -4.396255e+01 -1.162010e+01 2.044080e+01
    endloop
  endfacet
  facet normal -7.261625e-01 -6.875231e-01 -1.168200e-06
    outer loop
      vertex -4.396255e+01 -1.162010e+01 2.044080e+01
      vertex -3.998661e+01 -1.581951e+01 1.108369e+01
      vertex -3.752928e+01 -1.841488e+01 2.622389e+01
    endloop
  endfacet
  facet normal -7.261621e-01 -6.875235e-01 -1.474983e-06
    outer loop
      vertex -3.752928e+01 -1.841488e+01 2.622389e+01
      vertex -3.998661e+01 -1.581951e+01 1.108369e+01
      vertex -3.355330e+01 -2.261428e+01 1.686679e+01
    endloop
  endfacet
  facet normal -8.792616e-01 1.640036e-01 -4.472158e-01
    outer loop
      vertex -3.747132e+01 7.411515e+00 1.726561e+00
      vertex -3.948825e+01 -3.401987e+00 1.726529e+00
      vertex -4.592153e+01 3.392849e+00 1.686671e+01
    endloop
  endfacet
  facet normal -8.792616e-01 1.640036e-01 -4.472158e-01
    outer loop
      vertex -4.592153e+01 3.392849e+00 1.686671e+01
      vertex -3.948825e+01 -3.401987e+00 1.726529e+00
      vertex -4.471087e+01 -5.885667e+00 1.108365e+01
    endloop
  endfacet
  facet normal 3.139468e-06 -1.321525e-06 -1.000000e+00
    outer loop
      vertex -2.948350e+01 1.497430e+01 1.726522e+00
      vertex -3.948825e+01 -3.401987e+00 1.726529e+00
      vertex -3.747132e+01 7.411515e+00 1.726561e+00
    endloop
  endfacet
  facet normal -9.915938e-01 -1.293893e-01 -2.777258e-06
    outer loop
      vertex -4.592153e+01 3.392849e+00 1.686671e+01
      vertex -4.471087e+01 -5.885667e+00 1.108365e+01
      vertex -4.517331e+01 -2.341586e+00 2.622388e+01
    endloop
  endfacet
  facet normal -9.915937e-01 -1.293906e-01 -3.059436e-06
    outer loop
      vertex -4.517331e+01 -2.341586e+00 2.622388e+01
      vertex -4.471087e+01 -5.885667e+00 1.108365e+01
      vertex -4.396255e+01 -1.162010e+01 2.044080e+01
    endloop
  endfacet
  facet normal -3.879503e-01 -8.911881e-01 2.351135e-01
    outer loop
      vertex -3.752928e+01 -1.841488e+01 2.622389e+01
      vertex -3.355330e+01 -2.261428e+01 1.686679e+01
      vertex -2.820300e+01 -2.111020e+01 3.139645e+01
    endloop
  endfacet
  facet normal -3.879494e-01 -8.911884e-01 2.351134e-01
    outer loop
      vertex -2.820300e+01 -2.111020e+01 3.139645e+01
      vertex -3.355330e+01 -2.261428e+01 1.686679e+01
      vertex -2.422701e+01 -2.530966e+01 2.203928e+01
    endloop
  endfacet
  facet normal 1.157299e-01 -8.869084e-01 4.472139e-01
    outer loop
      vertex -2.820300e+01 -2.111020e+01 3.139645e+01
      vertex -2.422701e+01 -2.530966e+01 2.203928e+01
      vertex -1.055427e+01 -1.880722e+01 3.139648e+01
    endloop
  endfacet
  facet normal 1.157291e-01 -8.869081e-01 4.472145e-01
    outer loop
      vertex -1.055427e+01 -1.880722e+01 3.139648e+01
      vertex -2.422701e+01 -2.530966e+01 2.203928e+01
      vertex -1.331943e+01 -2.388634e+01 2.203932e+01
    endloop
  endfacet
  facet normal 6.036431e-01 -7.617973e-01 2.351166e-01
    outer loop
      vertex -1.055427e+01 -1.880722e+01 3.139648e+01
      vertex -1.331943e+01 -2.388634e+01 2.203932e+01
      vertex -2.231848e+00 -1.380900e+01 2.622400e+01
    endloop
  endfacet
  facet normal 6.036434e-01 -7.617974e-01 2.351157e-01
    outer loop
      vertex -2.231848e+00 -1.380900e+01 2.622400e+01
      vertex -1.331943e+01 -2.388634e+01 2.203932e+01
      vertex -4.997006e+00 -1.888812e+01 1.686684e+01
    endloop
  endfacet
  facet normal 4.742077e-01 -8.764070e-01 -8.389216e-02
    outer loop
      vertex -1.331943e+01 -2.388634e+01 2.203932e+01
      vertex -1.344729e+01 -2.290678e+01 1.108374e+01
      vertex -4.997006e+00 -1.888812e+01 1.686684e+01
    endloop
  endfacet
  facet normal 6.149406e-01 -6.494998e-01 -4.472114e-01
    outer loop
      vertex -4.997006e+00 -1.888812e+01 1.686684e+01
      vertex -1.344729e+01 -2.290678e+01 1.108374e+01
      vertex -6.207739e+00 -9.609578e+00 1.726636e+00
    endloop
  endfacet
  facet normal 8.362297e-01 -1.559771e-01 -5.257291e-01
    outer loop
      vertex -5.227256e-01 -1.066999e+01 1.108378e+01
      vertex -6.207739e+00 -9.609578e+00 1.726636e+00
      vertex -4.190720e+00 1.203905e+00 1.726604e+00
    endloop
  endfacet
  facet normal 6.149395e-01 -6.495003e-01 -4.472122e-01
    outer loop
      vertex -4.997006e+00 -1.888812e+01 1.686684e+01
      vertex -6.207739e+00 -9.609578e+00 1.726636e+00
      vertex -5.227256e-01 -1.066999e+01 1.108378e+01
    endloop
  endfacet
  facet normal 4.696769e-01 8.626778e-01 -1.875918e-01
    outer loop
      vertex -1.012577e+01 2.041631e+01 2.044088e+01
      vertex -6.149723e+00 1.621687e+01 1.108372e+01
      vertex -1.581075e+01 2.147663e+01 1.108374e+01
    endloop
  endfacet
  facet normal 1.833610e-01 9.830456e-01 -1.787169e-07
    outer loop
      vertex -1.012577e+01 2.041631e+01 2.044088e+01
      vertex -1.581075e+01 2.147663e+01 1.108374e+01
      vertex -1.932432e+01 2.213197e+01 2.622391e+01
    endloop
  endfacet
  facet normal 1.833617e-01 9.830456e-01 -2.858282e-07
    outer loop
      vertex -1.932432e+01 2.213197e+01 2.622391e+01
      vertex -1.581075e+01 2.147663e+01 1.108374e+01
      vertex -2.500927e+01 2.319238e+01 1.686675e+01
    endloop
  endfacet
  facet normal 4.067531e-01 7.471007e-01 -5.257304e-01
    outer loop
      vertex -6.149723e+00 1.621687e+01 1.108372e+01
      vertex -8.914975e+00 1.113777e+01 1.726586e+00
      vertex -1.581075e+01 2.147663e+01 1.108374e+01
    endloop
  endfacet
  facet normal 8.077382e-01 3.841361e-01 -4.472120e-01
    outer loop
      vertex -6.149723e+00 1.621687e+01 1.108372e+01
      vertex -4.190720e+00 1.203905e+00 1.726604e+00
      vertex -8.914975e+00 1.113777e+01 1.726586e+00
    endloop
  endfacet
  facet normal -2.099699e-01 9.490175e-01 2.351135e-01
    outer loop
      vertex -1.932432e+01 2.213197e+01 2.622391e+01
      vertex -2.500927e+01 2.319238e+01 1.686675e+01
      vertex -3.413875e+01 1.989110e+01 2.203922e+01
    endloop
  endfacet
  facet normal -3.805594e-01 9.209431e-01 -8.389504e-02
    outer loop
      vertex -2.500927e+01 2.319238e+01 1.686675e+01
      vertex -3.345950e+01 1.917373e+01 1.108367e+01
      vertex -3.413875e+01 1.989110e+01 2.203922e+01
    endloop
  endfacet
  facet normal -1.157292e-01 8.869080e-01 -4.472147e-01
    outer loop
      vertex -2.500927e+01 2.319238e+01 1.686675e+01
      vertex -2.948350e+01 1.497430e+01 1.726522e+00
      vertex -3.345950e+01 1.917373e+01 1.108367e+01
    endloop
  endfacet
  facet normal -5.848413e-01 6.177098e-01 -5.257331e-01
    outer loop
      vertex -2.948350e+01 1.497430e+01 1.726522e+00
      vertex -3.747132e+01 7.411515e+00 1.726561e+00
      vertex -3.345950e+01 1.917373e+01 1.108367e+01
    endloop
  endfacet
  facet normal 8.077382e-01 3.841361e-01 -4.472120e-01
    outer loop
      vertex 1.494203e+00 1.435318e-01 1.108378e+01
      vertex -4.190720e+00 1.203905e+00 1.726604e+00
      vertex -6.149723e+00 1.621687e+01 1.108372e+01
    endloop
  endfacet
  facet normal 8.362297e-01 -1.559771e-01 -5.257291e-01
    outer loop
      vertex -5.227256e-01 -1.066999e+01 1.108378e+01
      vertex -4.190720e+00 1.203905e+00 1.726604e+00
      vertex 1.494203e+00 1.435318e-01 1.108378e+01
    endloop
  endfacet
  facet normal -8.077382e-01 -3.841361e-01 4.472119e-01
    outer loop
      vertex -4.517331e+01 -2.341586e+00 2.622388e+01
      vertex -4.396255e+01 -1.162010e+01 2.044080e+01
      vertex -3.476413e+01 -1.333584e+01 3.558110e+01
    endloop
  endfacet
  facet normal -8.077381e-01 -3.841360e-01 4.472120e-01
    outer loop
      vertex -3.476413e+01 -1.333584e+01 3.558110e+01
      vertex -4.396255e+01 -1.162010e+01 2.044080e+01
      vertex -3.752928e+01 -1.841488e+01 2.622389e+01
    endloop
  endfacet
  facet normal -4.913872e-01 -6.963007e-01 5.231673e-01
    outer loop
      vertex -3.476413e+01 -1.333584e+01 3.558110e+01
      vertex -3.752928e+01 -1.841488e+01 2.622389e+01
      vertex -2.820300e+01 -2.111020e+01 3.139645e+01
    endloop
  endfacet
  facet normal -5.848407e-01 6.177102e-01 -5.257333e-01
    outer loop
      vertex -3.345950e+01 1.917373e+01 1.108367e+01
      vertex -3.747132e+01 7.411515e+00 1.726561e+00
      vertex -4.144727e+01 1.161092e+01 1.108368e+01
    endloop
  endfacet
  facet normal -8.792613e-01 1.640030e-01 -4.472164e-01
    outer loop
      vertex -4.144727e+01 1.161092e+01 1.108368e+01
      vertex -3.747132e+01 7.411515e+00 1.726561e+00
      vertex -4.592153e+01 3.392849e+00 1.686671e+01
    endloop
  endfacet
  facet normal -8.987808e-01 4.302958e-01 -8.389652e-02
    outer loop
      vertex -4.144727e+01 1.161092e+01 1.108368e+01
      vertex -4.592153e+01 3.392849e+00 1.686671e+01
      vertex -4.212651e+01 1.232832e+01 2.203922e+01
    endloop
  endfacet
  facet normal -9.361321e-01 2.614945e-01 2.351114e-01
    outer loop
      vertex -4.212651e+01 1.232832e+01 2.203922e+01
      vertex -4.592153e+01 3.392849e+00 1.686671e+01
      vertex -4.137828e+01 6.593910e+00 3.139639e+01
    endloop
  endfacet
  facet normal -9.361321e-01 2.614943e-01 2.351113e-01
    outer loop
      vertex -4.137828e+01 6.593910e+00 3.139639e+01
      vertex -4.592153e+01 3.392849e+00 1.686671e+01
      vertex -4.517331e+01 -2.341586e+00 2.622388e+01
    endloop
  endfacet
  facet normal -8.502367e-01 5.826597e-02 5.231660e-01
    outer loop
      vertex -4.137828e+01 6.593910e+00 3.139639e+01
      vertex -4.517331e+01 -2.341586e+00 2.622388e+01
      vertex -3.948839e+01 -3.401973e+00 3.558108e+01
    endloop
  endfacet
  facet normal -8.077382e-01 -3.841349e-01 4.472128e-01
    outer loop
      vertex -3.948839e+01 -3.401973e+00 3.558108e+01
      vertex -4.517331e+01 -2.341586e+00 2.622388e+01
      vertex -3.476413e+01 -1.333584e+01 3.558110e+01
    endloop
  endfacet
  facet normal -2.325862e-01 -6.058208e-01 7.608449e-01
    outer loop
      vertex -3.476413e+01 -1.333584e+01 3.558110e+01
      vertex -2.820300e+01 -2.111020e+01 3.139645e+01
      vertex -2.631386e+01 -9.317107e+00 4.136413e+01
    endloop
  endfacet
  facet normal -2.325862e-01 -6.058208e-01 7.608449e-01
    outer loop
      vertex -2.631386e+01 -9.317107e+00 4.136413e+01
      vertex -2.820300e+01 -2.111020e+01 3.139645e+01
      vertex -1.975276e+01 -1.709147e+01 3.717948e+01
    endloop
  endfacet
  facet normal 1.157290e-01 -8.869081e-01 4.472144e-01
    outer loop
      vertex -1.975276e+01 -1.709147e+01 3.717948e+01
      vertex -2.820300e+01 -2.111020e+01 3.139645e+01
      vertex -1.055427e+01 -1.880722e+01 3.139648e+01
    endloop
  endfacet
  facet normal 3.802522e-01 -5.258518e-01 7.608470e-01
    outer loop
      vertex -1.975276e+01 -1.709147e+01 3.717948e+01
      vertex -1.055427e+01 -1.880722e+01 3.139648e+01
      vertex -6.207774e+00 -9.609563e+00 3.558116e+01
    endloop
  endfacet
  facet normal 6.536060e-01 -5.468926e-01 5.231709e-01
    outer loop
      vertex -6.207774e+00 -9.609563e+00 3.558116e+01
      vertex -1.055427e+01 -1.880722e+01 3.139648e+01
      vertex -2.231848e+00 -1.380900e+01 2.622400e+01
    endloop
  endfacet
  facet normal 8.792613e-01 -1.640030e-01 4.472164e-01
    outer loop
      vertex -6.207774e+00 -9.609563e+00 3.558116e+01
      vertex -2.231848e+00 -1.380900e+01 2.622400e+01
      vertex 1.031749e+00 3.687594e+00 2.622397e+01
    endloop
  endfacet
  facet normal 8.792616e-01 -1.640036e-01 4.472158e-01
    outer loop
      vertex 1.031749e+00 3.687594e+00 2.622397e+01
      vertex -2.231848e+00 -1.380900e+01 2.622400e+01
      vertex 2.242430e+00 -5.590881e+00 2.044095e+01
    endloop
  endfacet
  facet normal 8.782697e-01 -4.781655e-01 2.564885e-06
    outer loop
      vertex -2.231848e+00 -1.380900e+01 2.622400e+01
      vertex -4.997006e+00 -1.888812e+01 1.686684e+01
      vertex 2.242430e+00 -5.590881e+00 2.044095e+01
    endloop
  endfacet
  facet normal 8.782699e-01 -4.781654e-01 2.811026e-06
    outer loop
      vertex 2.242430e+00 -5.590881e+00 2.044095e+01
      vertex -4.997006e+00 -1.888812e+01 1.686684e+01
      vertex -5.227256e-01 -1.066999e+01 1.108378e+01
    endloop
  endfacet
  facet normal 9.655940e-01 -1.801061e-01 -1.875906e-01
    outer loop
      vertex 2.242430e+00 -5.590881e+00 2.044095e+01
      vertex -5.227256e-01 -1.066999e+01 1.108378e+01
      vertex 1.494203e+00 1.435318e-01 1.108378e+01
    endloop
  endfacet
  facet normal 4.276822e-01 7.855484e-01 4.472154e-01
    outer loop
      vertex -3.692518e+00 1.362141e+01 2.622395e+01
      vertex -1.012577e+01 2.041631e+01 2.044088e+01
      vertex -1.932432e+01 2.213197e+01 2.622391e+01
    endloop
  endfacet
  facet normal 7.261622e-01 6.875235e-01 6.433056e-07
    outer loop
      vertex 2.834277e-01 9.422011e+00 1.686685e+01
      vertex -6.149723e+00 1.621687e+01 1.108372e+01
      vertex -1.012577e+01 2.041631e+01 2.044088e+01
    endloop
  endfacet
  facet normal 7.261624e-01 6.875232e-01 1.999878e-06
    outer loop
      vertex -3.692518e+00 1.362141e+01 2.622395e+01
      vertex 2.834277e-01 9.422011e+00 1.686685e+01
      vertex -1.012577e+01 2.041631e+01 2.044088e+01
    endloop
  endfacet
  facet normal 8.077382e-01 3.841361e-01 -4.472119e-01
    outer loop
      vertex 2.834277e-01 9.422011e+00 1.686685e+01
      vertex 1.494203e+00 1.435318e-01 1.108378e+01
      vertex -6.149723e+00 1.621687e+01 1.108372e+01
    endloop
  endfacet
  facet normal 4.276822e-01 7.855496e-01 4.472135e-01
    outer loop
      vertex -8.915075e+00 1.113781e+01 3.558113e+01
      vertex -1.932432e+01 2.213197e+01 2.622391e+01
      vertex -1.857606e+01 1.639758e+01 3.558105e+01
    endloop
  endfacet
  facet normal -1.173661e-02 8.521494e-01 5.231670e-01
    outer loop
      vertex -1.857606e+01 1.639758e+01 3.558105e+01
      vertex -1.932432e+01 2.213197e+01 2.622391e+01
      vertex -2.845372e+01 1.883071e+01 3.139644e+01
    endloop
  endfacet
  facet normal -2.099696e-01 9.490178e-01 2.351127e-01
    outer loop
      vertex -1.932432e+01 2.213197e+01 2.622391e+01
      vertex -3.413875e+01 1.989110e+01 2.203922e+01
      vertex -2.845372e+01 1.883071e+01 3.139644e+01
    endloop
  endfacet
  facet normal 4.276830e-01 7.855492e-01 4.472132e-01
    outer loop
      vertex -8.915075e+00 1.113781e+01 3.558113e+01
      vertex -3.692518e+00 1.362141e+01 2.622395e+01
      vertex -1.932432e+01 2.213197e+01 2.622391e+01
    endloop
  endfacet
  facet normal -6.149406e-01 6.494998e-01 4.472114e-01
    outer loop
      vertex -3.413875e+01 1.989110e+01 2.203922e+01
      vertex -4.212651e+01 1.232832e+01 2.203922e+01
      vertex -2.845372e+01 1.883071e+01 3.139644e+01
    endloop
  endfacet
  facet normal -6.847450e-01 7.232282e-01 -8.980778e-02
    outer loop
      vertex -3.413875e+01 1.989110e+01 2.203922e+01
      vertex -4.144727e+01 1.161092e+01 1.108368e+01
      vertex -4.212651e+01 1.232832e+01 2.203922e+01
    endloop
  endfacet
  facet normal -6.847450e-01 7.232282e-01 -8.980778e-02
    outer loop
      vertex -3.345950e+01 1.917373e+01 1.108367e+01
      vertex -4.144727e+01 1.161092e+01 1.108368e+01
      vertex -3.413875e+01 1.989110e+01 2.203922e+01
    endloop
  endfacet
  facet normal 9.915937e-01 1.293909e-01 1.670059e-06
    outer loop
      vertex 2.242430e+00 -5.590881e+00 2.044095e+01
      vertex 1.494203e+00 1.435318e-01 1.108378e+01
      vertex 2.834277e-01 9.422011e+00 1.686685e+01
    endloop
  endfacet
  facet normal -4.747781e-01 -2.257889e-01 8.506498e-01
    outer loop
      vertex -3.948839e+01 -3.401973e+00 3.558108e+01
      vertex -3.476413e+01 -1.333584e+01 3.558110e+01
      vertex -2.631386e+01 -9.317107e+00 4.136413e+01
    endloop
  endfacet
  facet normal -6.149406e-01 6.494998e-01 4.472114e-01
    outer loop
      vertex -2.845372e+01 1.883071e+01 3.139644e+01
      vertex -4.212651e+01 1.232832e+01 2.203922e+01
      vertex -4.137828e+01 6.593910e+00 3.139639e+01
    endloop
  endfacet
  facet normal -6.149406e-01 6.494998e-01 4.472114e-01
    outer loop
      vertex -2.845372e+01 1.883071e+01 3.139644e+01
      vertex -4.137828e+01 6.593910e+00 3.139639e+01
      vertex -3.292800e+01 1.061260e+01 3.717946e+01
    endloop
  endfacet
  facet normal -6.167221e-01 2.019174e-01 7.608438e-01
    outer loop
      vertex -4.137828e+01 6.593910e+00 3.139639e+01
      vertex -3.948839e+01 -3.401973e+00 3.558108e+01
      vertex -3.292800e+01 1.061260e+01 3.717946e+01
    endloop
  endfacet
  facet normal -6.167228e-01 2.019170e-01 7.608433e-01
    outer loop
      vertex -3.292800e+01 1.061260e+01 3.717946e+01
      vertex -3.948839e+01 -3.401973e+00 3.558108e+01
      vertex -3.103811e+01 6.167372e-01 4.136409e+01
    endloop
  endfacet
  facet normal -4.747781e-01 -2.257889e-01 8.506498e-01
    outer loop
      vertex -3.103811e+01 6.167372e-01 4.136409e+01
      vertex -3.948839e+01 -3.401973e+00 3.558108e+01
      vertex -2.631386e+01 -9.317107e+00 4.136413e+01
    endloop
  endfacet
  facet normal -2.182074e-06 1.083116e-06 1.000000e+00
    outer loop
      vertex -3.103811e+01 6.167372e-01 4.136409e+01
      vertex -2.631386e+01 -9.317107e+00 4.136413e+01
      vertex -1.338937e+01 2.919684e+00 4.136416e+01
    endloop
  endfacet
  facet normal -1.470575e-06 3.585760e-07 1.000000e+00
    outer loop
      vertex -1.338937e+01 2.919684e+00 4.136416e+01
      vertex -2.631386e+01 -9.317107e+00 4.136413e+01
      vertex -1.540634e+01 -7.893817e+00 4.136414e+01
    endloop
  endfacet
  facet normal 5.683654e-02 -4.355803e-01 8.983538e-01
    outer loop
      vertex -2.631386e+01 -9.317107e+00 4.136413e+01
      vertex -1.975276e+01 -1.709147e+01 3.717948e+01
      vertex -1.540634e+01 -7.893817e+00 4.136414e+01
    endloop
  endfacet
  facet normal 3.802522e-01 -5.258518e-01 7.608470e-01
    outer loop
      vertex -1.540634e+01 -7.893817e+00 4.136414e+01
      vertex -1.975276e+01 -1.709147e+01 3.717948e+01
      vertex -6.207774e+00 -9.609563e+00 3.558116e+01
    endloop
  endfacet
  facet normal 5.168159e-01 -9.639867e-02 8.506519e-01
    outer loop
      vertex -1.540634e+01 -7.893817e+00 4.136414e+01
      vertex -6.207774e+00 -9.609563e+00 3.558116e+01
      vertex -4.190866e+00 1.203913e+00 3.558109e+01
    endloop
  endfacet
  facet normal 8.792613e-01 -1.640030e-01 4.472164e-01
    outer loop
      vertex -4.190866e+00 1.203913e+00 3.558109e+01
      vertex -6.207774e+00 -9.609563e+00 3.558116e+01
      vertex 1.031749e+00 3.687594e+00 2.622397e+01
    endloop
  endfacet
  facet normal 7.682024e-01 3.653356e-01 5.257329e-01
    outer loop
      vertex -4.190866e+00 1.203913e+00 3.558109e+01
      vertex 1.031749e+00 3.687594e+00 2.622397e+01
      vertex -3.692518e+00 1.362141e+01 2.622395e+01
    endloop
  endfacet
  facet normal 8.870444e-01 4.218537e-01 1.875945e-01
    outer loop
      vertex 1.031749e+00 3.687594e+00 2.622397e+01
      vertex 2.834277e-01 9.422011e+00 1.686685e+01
      vertex -3.692518e+00 1.362141e+01 2.622395e+01
    endloop
  endfacet
  facet normal 9.915937e-01 1.293909e-01 1.670059e-06
    outer loop
      vertex 1.031749e+00 3.687594e+00 2.622397e+01
      vertex 2.242430e+00 -5.590881e+00 2.044095e+01
      vertex 2.834277e-01 9.422011e+00 1.686685e+01
    endloop
  endfacet
  facet normal 7.682033e-01 3.653350e-01 5.257320e-01
    outer loop
      vertex -4.190866e+00 1.203913e+00 3.558109e+01
      vertex -3.692518e+00 1.362141e+01 2.622395e+01
      vertex -8.915075e+00 1.113781e+01 3.558113e+01
    endloop
  endfacet
  facet normal 5.482227e-01 2.607188e-01 7.946556e-01
    outer loop
      vertex -1.338937e+01 2.919684e+00 4.136416e+01
      vertex -4.190866e+00 1.203913e+00 3.558109e+01
      vertex -8.915075e+00 1.113781e+01 3.558113e+01
    endloop
  endfacet
  facet normal 2.513837e-01 4.617343e-01 8.506513e-01
    outer loop
      vertex -2.305033e+01 8.179513e+00 4.136415e+01
      vertex -1.338937e+01 2.919684e+00 4.136416e+01
      vertex -8.915075e+00 1.113781e+01 3.558113e+01
    endloop
  endfacet
  facet normal 2.513837e-01 4.617343e-01 8.506513e-01
    outer loop
      vertex -1.857606e+01 1.639758e+01 3.558105e+01
      vertex -2.305033e+01 8.179513e+00 4.136415e+01
      vertex -8.915075e+00 1.113781e+01 3.558113e+01
    endloop
  endfacet
  facet normal -1.679301e-01 6.268294e-01 7.608445e-01
    outer loop
      vertex -1.857606e+01 1.639758e+01 3.558105e+01
      vertex -3.292800e+01 1.061260e+01 3.717946e+01
      vertex -2.305033e+01 8.179513e+00 4.136415e+01
    endloop
  endfacet
  facet normal -1.679301e-01 6.268295e-01 7.608444e-01
    outer loop
      vertex -2.845372e+01 1.883071e+01 3.139644e+01
      vertex -3.292800e+01 1.061260e+01 3.717946e+01
      vertex -1.857606e+01 1.639758e+01 3.558105e+01
    endloop
  endfacet
  facet normal -3.020135e-01 3.189852e-01 8.983521e-01
    outer loop
      vertex -3.292800e+01 1.061260e+01 3.717946e+01
      vertex -3.103811e+01 6.167372e-01 4.136409e+01
      vertex -2.305033e+01 8.179513e+00 4.136415e+01
    endloop
  endfacet
  facet normal -2.427970e-06 5.969856e-07 1.000000e+00
    outer loop
      vertex -2.305033e+01 8.179513e+00 4.136415e+01
      vertex -3.103811e+01 6.167372e-01 4.136409e+01
      vertex -1.338937e+01 2.919684e+00 4.136416e+01
    endloop
  endfacet
  facet normal 5.168159e-01 -9.639867e-02 8.506519e-01
    outer loop
      vertex -1.338937e+01 2.919684e+00 4.136416e+01
      vertex -1.540634e+01 -7.893817e+00 4.136414e+01
      vertex -4.190866e+00 1.203913e+00 3.558109e+01
    endloop
  endfacet
endsolid Default
